<svg width="258" height="182" viewBox="0 0 258 182" fill="none" xmlns="http://www.w3.org/2000/svg">
<path d="M125.799 122.014C65.8835 102.088 -11.4948 149.361 9.90471 85.3445C31.3043 21.3279 97.2371 -14.4078 157.152 5.5184C217.068 25.4447 248.3 93.5087 226.9 157.525C205.501 221.542 185.714 141.958 125.799 122.014Z" fill="#C21F3D"/>
<path d="M257.178 97.66C256.78 99.9086 256.467 102.175 255.982 104.406C254.924 109.336 253.727 114.248 252.704 119.195C252.375 120.769 252.375 122.412 252.34 124.021C252.323 124.834 252.115 125.335 251.386 125.768C246.93 128.397 242.75 126.321 242.334 121.167C242.005 116.981 242.594 112.847 243.617 108.799C245.022 103.299 246.513 97.8157 247.987 92.3325C248.109 91.8482 248.369 91.3985 248.369 90.7931C247.814 91.4504 247.242 92.073 246.704 92.7476C242.993 97.4351 240.583 102.849 238.172 108.229C236.282 112.449 234.565 116.756 232.866 121.063C232.189 122.775 231.235 124.194 229.865 125.422C226.952 128.034 222.686 126.857 222.148 123.018C221.802 120.544 222.096 117.932 222.495 115.441C223.276 110.667 224.333 105.945 225.27 101.189C225.322 100.912 225.357 100.549 225.357 100.462C223.536 101.31 224.802 100.704 222.981 101.569C221.091 102.451 220.362 102.572 218.489 103.489C218.021 103.714 217.622 104.267 217.397 104.752C212.697 115.044 204.668 121.461 193.864 124.505C192.321 124.938 190.535 124.955 188.922 124.73C184.933 124.159 182.176 121.219 182.072 117.188C182.003 114.161 182.436 111.1 182.644 108.073C182.661 107.779 182.731 107.485 182.766 107.191C182.766 107.122 182.696 107.052 182.54 106.793C181.968 107.796 181.448 108.696 180.962 109.612C178.43 114.369 175.586 118.901 171.32 122.343C170.314 123.156 169.118 123.831 167.904 124.315C165.233 125.37 162.58 124.367 161.002 121.98C159.51 119.731 158.834 117.206 159.008 114.594C159.268 110.616 159.857 106.672 160.308 102.711C160.343 102.417 160.412 102.123 160.447 101.829C160.464 101.725 160.395 101.604 160.325 101.258C159.701 102.417 159.164 103.42 158.626 104.406C155.886 109.491 152.557 114.161 148.481 118.261C146.418 120.336 144.128 122.118 141.423 123.242C140.417 123.658 139.307 123.952 138.215 124.003C135.804 124.125 134.018 123.087 133.012 120.838C131.972 118.503 131.556 115.995 131.729 113.487C131.989 109.474 132.51 105.461 132.926 101.465C132.96 101.05 133.03 100.635 132.839 100.116C132.614 100.531 132.371 100.946 132.145 101.362C129.076 107.104 126.163 112.951 121.966 117.984C120.631 119.593 119 121.115 117.214 122.153C112.914 124.626 107.954 122.084 107.451 117.154C107.191 114.559 107.468 111.913 107.52 109.284C107.52 108.972 107.572 108.661 107.642 107.986C106.601 109.249 105.751 110.252 104.936 111.256C101.243 115.753 96.8726 119.437 91.5834 121.962C89.433 122.983 87.1265 123.588 84.7681 123.242C80.502 122.637 77.8314 119.818 77.1898 115.441C77.0164 114.231 76.9644 113.02 76.8257 111.515C76.3054 112.19 75.9065 112.708 75.5077 113.227C72.8891 116.548 70.1491 119.783 66.4207 121.928C64.7906 122.862 62.9524 123.588 61.1142 123.917C58.617 124.384 56.7267 123.139 55.6689 120.821C54.5764 118.451 54.3682 115.926 54.3162 113.348C54.2295 107.779 55.4087 102.365 56.3105 96.9335C57.0389 92.5747 57.8539 88.2331 58.5996 83.8915C58.6863 83.3553 58.7036 82.8018 58.7556 82.1099C57.1775 81.937 55.6689 81.7813 54.1602 81.6083C53.744 81.5564 53.3277 81.4526 52.9115 81.3488C51.0039 80.8126 50.8652 80.2591 51.4202 78.3738C52.1485 75.883 53.7613 75.0008 56.2065 74.9316C59.8135 74.8278 59.8135 74.7587 60.5071 71.1955C60.854 69.3966 61.2009 67.615 61.5477 65.8161C61.7905 64.5188 62.4495 63.5847 63.7154 63.0485C65.2762 62.3912 66.8022 61.5956 68.3803 60.9556C70.0624 60.281 71.0335 60.8172 71.5711 62.5469C72.2995 64.8647 71.9006 67.1825 71.6058 69.5003C71.4844 70.5036 71.3457 71.5241 71.207 72.7349C71.814 72.7349 72.3515 72.7349 72.8891 72.7349C74.9354 72.7349 76.9817 72.7176 79.0453 72.7176C80.5194 72.7176 80.9877 73.15 80.953 74.6203C80.9183 75.6408 80.8316 76.6613 80.6408 77.6473C80.2593 79.5499 79.2534 80.8991 77.2071 81.297C74.9527 81.7294 72.6983 82.1964 70.2878 82.6807C69.8716 84.9985 69.4555 87.4547 69.0046 89.8936C67.9121 95.9476 66.8022 102.002 65.727 108.056C65.5362 109.145 65.3802 110.252 65.3629 111.342C65.3109 113.037 66.1606 113.521 67.6173 112.622C68.5537 112.051 69.4208 111.325 70.2359 110.581C74.4325 106.689 77.7447 102.105 80.6928 97.2622C82.375 94.4946 84.2132 92.073 87.2306 90.499C89.9359 89.0979 92.2944 87.0396 94.9303 85.5002C97.9824 83.7358 101.277 82.9402 104.884 83.511C108.041 84.0126 110.035 85.7596 111.283 88.5617C111.44 88.8904 111.596 89.219 111.838 89.7033C112.515 87.7315 113.156 85.9499 113.746 84.151C114.145 82.9402 114.839 82.0926 116.087 81.6775C117.787 81.124 119.451 80.4494 121.168 79.9478C123.665 79.204 124.793 79.9305 124.55 82.525C124.272 85.4137 123.579 88.2677 122.972 91.1217C121.394 98.5595 119.781 105.98 118.185 113.4C118.099 113.833 118.168 114.317 118.168 115.234C118.948 114.507 119.573 114.092 119.972 113.521C121.584 111.221 123.18 108.903 124.688 106.551C128.053 101.327 131.4 96.1033 134.643 90.8104C135.18 89.9282 135.25 88.7174 135.44 87.645C135.752 85.8634 135.978 84.0645 136.255 82.1618C134.469 81.9542 132.874 81.7986 131.278 81.5737C130.689 81.4872 130.064 81.3488 129.596 81.0375C129.163 80.7607 128.746 80.2764 128.608 79.8094C128.192 78.2873 130.273 75.3122 131.851 75.1219C133.29 74.9489 134.747 74.8451 136.186 74.7933C136.984 74.776 137.279 74.43 137.417 73.6689C137.886 71.1263 138.44 68.5836 138.891 66.0409C139.169 64.5361 139.897 63.4982 141.354 62.9101C142.689 62.3739 143.972 61.6648 145.308 61.1285C147.475 60.2464 148.603 60.921 149.123 63.135C149.765 65.9198 148.967 68.6182 148.759 71.3684C148.724 71.749 148.655 72.1122 148.568 72.7176C149.053 72.7176 149.47 72.7176 149.869 72.7176C152.14 72.7003 154.395 72.7003 156.666 72.683C158.123 72.683 158.349 72.8906 158.349 74.3954C158.349 74.776 158.349 75.1565 158.331 75.537C158.106 79.4808 157.135 80.6916 153.285 81.5737C151.464 81.9888 149.608 82.2483 147.683 82.5769C147.059 86.0364 146.418 89.5477 145.793 93.0417C144.787 98.7324 143.747 104.406 142.828 110.097C142.689 110.979 142.758 112.328 143.296 112.778C144.198 113.521 145.186 112.518 145.984 111.913C149.366 109.249 152.106 105.98 154.533 102.486C156.875 99.1303 159.112 95.7227 161.279 92.2633C161.956 91.1736 162.181 89.8244 162.719 88.6309C163.013 87.9736 163.378 87.1953 163.933 86.832C165.788 85.6385 167.73 84.5315 169.69 83.5283C171.546 82.5942 172.69 83.1996 173.21 85.1715C173.817 87.4547 173.436 89.7206 173.089 92.0039C172.135 98.1789 171.181 104.337 170.314 110.512C170.106 111.947 170.28 113.418 170.574 114.94C170.852 114.628 171.112 114.317 171.389 114.006C177.216 107.45 181.153 99.6838 185.367 92.1076C186.303 90.4298 187.5 89.3228 189.338 88.8039C191.835 88.0774 194.315 87.3509 196.795 86.538C197.835 86.192 198.859 85.725 199.812 85.1888C202.865 83.4764 206.038 82.404 209.593 82.9575C215.368 83.8742 218.819 87.5585 219.374 93.4049C219.46 94.2871 219.547 95.4114 219.669 96.4838C221.021 95.9476 221.091 96.0687 222.27 95.4806C224.819 94.2006 224.247 94.4255 226.744 93.0417C227.178 92.7995 227.49 92.1941 227.698 91.6752C228.357 90.032 228.877 88.3023 229.605 86.6936C229.848 86.1747 230.559 85.6558 231.131 85.552C233.022 85.2061 234.929 84.9466 236.837 84.8602C239.056 84.7737 239.715 85.5175 239.386 87.7315C238.952 90.5855 238.363 93.4049 237.843 96.2589C237.808 96.4665 237.773 96.6741 237.929 96.9854C238.172 96.6395 238.432 96.3108 238.675 95.9476C241.363 91.8482 244.71 88.3542 248.473 85.2407C251.317 82.8883 253.693 83.2861 255.271 86.5899C256.19 88.5098 256.589 90.672 257.213 92.7303C257.178 94.4254 257.178 96.0341 257.178 97.66ZM87.8376 109.941C87.9589 110.961 88.011 111.723 88.167 112.466C88.6179 114.698 90.2481 115.753 92.4158 115.009C93.9765 114.473 95.5199 113.781 96.9072 112.899C101.503 109.958 105.162 105.997 108.11 101.5C109.133 99.9432 109.636 97.6427 109.428 95.7919C108.856 90.7758 106.861 88.2158 101.277 91.0871C95.0863 94.2871 90.751 99.234 88.6179 105.928C88.1497 107.294 88.0457 108.747 87.8376 109.941ZM214.085 94.5984C214.102 90.8277 211.535 87.8698 207.824 87.2126C203.732 86.4861 197.124 89.9109 196.726 94.339C196.466 97.1411 196.587 98.2135 199.136 99.5454C199.431 99.7011 199.743 99.8394 200.055 99.9778C203.194 101.292 206.385 101.068 209.593 100.255C213.668 99.2513 214.067 98.767 214.085 94.5984ZM194.194 102.123C193.517 105.444 192.72 108.471 192.286 111.567C191.905 114.283 193.413 115.39 196.188 114.646C199.188 113.833 201.893 112.38 204.321 110.477C205.847 109.284 207.217 107.917 208.657 106.62C208.622 106.516 208.57 106.395 208.535 106.291C203.35 106.672 198.477 105.963 194.194 102.123Z" fill="white"/>
<path d="M53.7787 38.1061C57.5591 38.2272 61.9466 38.331 65.8485 40.6488C66.9237 41.2888 67.9988 42.1363 68.6752 43.1396C70.2186 45.3882 70.1666 47.8098 68.5885 50.0584C65.3629 54.6248 61.0622 58.0324 56.2065 60.7134C55.6863 61.0075 54.7499 60.9383 54.1776 60.6615C52.9464 60.0907 52.9116 59.1394 54.0041 58.3091C55.7903 56.9427 57.6633 55.6454 59.3801 54.1924C60.3512 53.3795 61.2182 52.4108 61.9293 51.373C63.1432 49.5914 62.5709 48.4844 60.4379 48.2595C56.8829 47.8617 53.3626 48.1557 49.8596 48.8476C43.4432 50.1103 37.2868 52.0476 31.9109 55.9048C30.5756 56.8735 29.3444 58.0151 28.1825 59.1913C26.8299 60.5405 26.7258 62.1837 27.6969 63.7577C28.564 65.1588 29.6566 66.4388 30.6797 67.7187C34.4082 72.3717 38.3621 76.8516 41.8304 81.6775C45.7843 87.178 48.004 93.4914 48.0733 100.272C48.1774 110.443 43.6166 118.261 34.8937 123.519C31.5295 125.543 27.9223 127.117 23.8644 127.325C16.3555 127.688 10.1472 124.661 4.73664 119.835C3.34931 118.59 2.18742 116.946 1.37236 115.251C-1.64508 109.041 0.47063 100.825 6.17602 95.9995C9.0027 93.6125 12.3496 92.2287 15.9394 91.4331C16.6157 91.2774 17.4307 91.6752 18.1764 91.8136C17.8122 92.5228 17.5867 93.3703 17.0491 93.8892C14.7427 96.1379 12.1761 98.1616 9.99109 100.531C6.26264 104.579 6.29738 107.623 9.60963 112.017C12.1415 115.39 15.5405 117.569 19.5117 118.676C23.2228 119.714 26.6738 118.762 29.8127 116.531C36.3851 111.861 38.2407 105.945 35.3273 98.4557C33.5931 94.0103 30.8704 90.1531 27.905 86.4515C24.4367 82.1272 20.8296 77.924 17.6041 73.4441C13.1646 67.269 13.1993 61.5091 17.5174 55.2302C18.9221 53.1892 20.6216 51.2346 22.5118 49.6433C31.3387 42.2747 41.4835 38.1061 53.7787 38.1061Z" fill="white"/>
<path d="M173.262 73.4787C173.124 77.5954 170.904 79.2386 167.037 79.671C165.424 79.844 164.071 78.8235 163.863 77.163C163.707 75.9003 163.776 74.5165 164.123 73.2884C164.349 72.51 165.164 71.8182 165.875 71.2992C166.915 70.5209 168.112 69.9501 169.222 69.2409C170.28 68.549 171.632 68.7393 172.17 69.8809C172.69 71.0225 172.915 72.2679 173.262 73.4787Z" fill="white"/>
<path d="M98.451 41.2196C100.324 41.2196 102.266 41.2196 104.312 41.2196C104.174 41.4445 104.07 41.6001 103.983 41.7731C103.775 42.2747 103.428 42.7763 103.411 43.278C103.341 45.1633 103.376 47.066 103.376 48.986C103.567 49.0206 103.74 49.0552 103.896 49.0552C105.943 49.0552 108.006 49.0379 110.053 49.0725C110.59 49.0725 110.746 48.8995 110.729 48.3806C110.694 46.8585 110.781 45.3363 110.694 43.8142C110.642 43.105 110.295 42.4131 110.07 41.7039C110.018 41.5483 109.931 41.4099 109.81 41.2196C111.856 41.2196 113.798 41.2196 115.949 41.2196C114.561 42.6553 114.943 44.3331 114.926 45.9244C114.891 49.1244 114.926 52.307 114.926 55.507C114.926 57.5999 114.926 57.6 115.81 59.3124C113.816 59.3124 111.873 59.3124 109.844 59.3124C109.914 59.1567 110.001 59.0183 110.053 58.8626C110.261 58.3437 110.642 57.8248 110.66 57.2886C110.729 55.4205 110.694 53.5524 110.694 51.6325C108.249 51.6325 105.839 51.6325 103.376 51.6325C103.376 53.5697 103.307 55.4724 103.411 57.3924C103.445 58.0324 103.896 58.6551 104.174 59.3124C102.249 59.3124 100.289 59.3124 98.2603 59.3124C98.347 59.1394 98.4337 59.001 98.4683 58.8453C98.6938 58.1535 99.11 57.4443 99.11 56.7524C99.162 52.4454 99.1793 48.1211 99.11 43.8142C99.1273 42.9666 98.6938 42.1191 98.451 41.2196Z" fill="white"/>
<path d="M129.475 45.0077C128.989 44.0736 128.191 43.7796 127.203 43.8142C126.058 43.8315 124.914 43.8142 123.717 43.8142C123.717 45.2844 123.717 46.6855 123.717 48.173C125.365 48.0693 126.977 48.3806 128.608 47.9482C128.608 48.9168 128.608 49.92 128.608 50.8195C126.995 50.8195 125.382 50.8195 123.735 50.8195C123.735 52.7049 123.735 54.6594 123.735 56.7178C125.209 56.7178 126.683 56.7178 128.157 56.7178C130.099 56.7178 130.116 56.7005 131.694 55.4724C131.365 56.8389 131.035 58.188 130.723 59.4161C126.648 59.4161 122.659 59.4161 118.671 59.4161C118.636 59.3642 118.584 59.3124 118.549 59.2605C119.867 57.894 119.503 56.2335 119.503 54.6421C119.538 51.6325 119.521 48.6055 119.503 45.5958C119.503 44.0909 119.781 42.5342 118.411 41.1331C122.243 41.1331 125.85 41.1331 129.492 41.1331C129.475 42.3612 129.475 43.6931 129.475 45.0077Z" fill="white"/>
<path d="M91.6702 59.3642C89.4679 59.3642 87.5082 59.3642 85.566 59.3642C85.5486 59.3124 85.5139 59.2432 85.5312 59.2086C86.381 58.1362 86.3983 56.8735 86.3983 55.5935C86.3636 51.9957 86.3811 48.4152 86.3811 44.8174C86.3811 44.5233 86.3811 44.2293 86.3811 43.7796C84.5429 44.0044 82.6005 43.1742 81.0225 44.9039C81.352 43.6066 81.6814 42.3266 81.9762 41.1331C86.6411 41.0985 91.2367 41.3407 95.9016 40.9601C95.6241 42.0672 95.3467 43.2088 95.0345 44.4542C93.6645 43.399 92.1385 43.9698 90.5777 43.7969C90.5777 44.1428 90.5777 44.4023 90.5777 44.6617C90.5777 48.346 90.595 52.0476 90.5777 55.7319C90.5777 56.9945 90.5084 58.2399 91.6702 59.3642Z" fill="white"/>
<path d="M46.6857 135.644C47.0152 135.644 47.31 135.644 47.5528 135.662C47.7956 135.679 48.021 135.714 48.2118 135.731C48.4199 135.765 48.6279 135.817 48.836 135.869L48.732 136.648C48.5066 136.63 48.2985 136.596 48.0904 136.596C47.8996 136.578 47.6915 136.578 47.4661 136.561C47.2407 136.561 46.9805 136.544 46.6683 136.544C46.1654 136.544 45.7492 136.648 45.4544 136.838C45.1596 137.045 44.9342 137.374 44.8128 137.841C44.6914 138.308 44.622 138.931 44.622 139.744C44.622 140.539 44.6914 141.179 44.8128 141.647C44.9342 142.114 45.1596 142.442 45.4544 142.65C45.7492 142.84 46.1481 142.944 46.6683 142.944C47.1539 142.944 47.5701 142.926 47.8996 142.909C48.2291 142.892 48.5586 142.857 48.8708 142.805L48.9748 143.549C48.6453 143.636 48.3158 143.705 47.9516 143.757C47.6048 143.809 47.1712 143.809 46.651 143.809C45.9053 143.809 45.2984 143.688 44.8301 143.411C44.3793 143.151 44.0498 142.719 43.8417 142.131C43.6336 141.543 43.5469 140.73 43.5469 139.727C43.5469 138.723 43.6509 137.91 43.8417 137.322C44.0498 136.734 44.3793 136.302 44.8301 136.042C45.333 135.783 45.9227 135.644 46.6857 135.644Z" fill="white"/>
<path d="M53.1195 135.679C53.7265 135.679 54.2294 135.748 54.5936 135.887C54.9578 136.025 55.2352 136.25 55.4086 136.578C55.582 136.907 55.6688 137.374 55.6688 137.962C55.6688 138.395 55.6167 138.741 55.5127 139.035C55.4086 139.329 55.2526 139.554 55.0445 139.709C54.8364 139.865 54.5589 139.969 54.212 140.003V140.055C54.3334 140.09 54.4722 140.159 54.5936 140.245C54.715 140.349 54.8364 140.47 54.9405 140.626C55.0445 140.782 55.1311 140.972 55.1832 141.197L55.9462 143.688H54.871L54.1774 141.214C54.0734 140.92 53.9519 140.712 53.7785 140.574C53.6224 140.453 53.397 140.384 53.1369 140.384C52.6686 140.384 52.2699 140.384 51.923 140.384C51.5762 140.384 51.2987 140.367 51.056 140.367C50.8305 140.367 50.6397 140.367 50.5183 140.367L50.553 139.536H53.1023C53.4838 139.536 53.7959 139.484 54.0213 139.398C54.2468 139.311 54.4029 139.173 54.5069 138.948C54.611 138.723 54.6629 138.429 54.6629 138.031C54.6629 137.651 54.611 137.34 54.5069 137.132C54.4029 136.924 54.2468 136.769 54.0213 136.7C53.7959 136.613 53.4838 136.578 53.1023 136.578C52.478 136.578 51.9404 136.578 51.4895 136.578C51.0386 136.578 50.7264 136.596 50.5703 136.596L50.4142 135.8C50.709 135.766 50.9866 135.748 51.2293 135.731C51.4895 135.714 51.7669 135.696 52.0617 135.696C52.3565 135.679 52.7033 135.679 53.1195 135.679ZM51.4027 135.783V143.67H50.397V135.783H51.4027Z" fill="white"/>
<path d="M58.9296 135.766C59.3111 135.766 59.6926 135.766 60.0741 135.766C60.4556 135.766 60.8372 135.766 61.2187 135.783C61.6002 135.783 61.9644 135.8 62.3112 135.835L62.2765 136.63H59.103C58.8602 136.63 58.6868 136.682 58.5828 136.803C58.4787 136.924 58.4267 137.115 58.4267 137.391V142.079C58.4267 142.356 58.4787 142.546 58.5828 142.667C58.6868 142.788 58.8602 142.857 59.103 142.857H62.2765L62.3286 143.636C61.9818 143.653 61.6176 143.67 61.2361 143.688C60.8546 143.688 60.473 143.705 60.0915 143.705C59.71 143.705 59.3285 143.705 58.947 143.705C58.4787 143.705 58.1145 143.584 57.8371 143.324C57.5596 143.065 57.4209 142.736 57.4209 142.321V137.149C57.4209 136.717 57.577 136.388 57.8371 136.129C58.0972 135.904 58.4787 135.766 58.9296 135.766ZM57.629 139.104H61.843V139.917H57.629V139.104Z" fill="white"/>
<path d="M66.9755 135.783C67.0795 135.783 67.1488 135.8 67.2182 135.852C67.2875 135.904 67.3223 135.956 67.3569 136.06L69.8889 143.67H68.8483L66.802 137.184C66.7673 137.08 66.75 136.976 66.6979 136.855C66.6633 136.751 66.6286 136.648 66.5939 136.527H66.2644C66.2297 136.63 66.2124 136.734 66.1777 136.855C66.143 136.959 66.1084 137.063 66.0737 137.184L64.0274 143.67H62.9868L65.5361 136.06C65.5534 135.973 65.6055 135.904 65.6749 135.852C65.7442 135.8 65.8308 135.783 65.9176 135.783H66.9755ZM68.4495 140.332V141.197H64.4436V140.332H68.4495Z" fill="white"/>
<path d="M75.7161 135.783V136.682H69.6118V135.783H75.7161ZM73.1669 135.783V143.67H72.1611V135.783H73.1669Z" fill="white"/>
<path d="M77.9878 135.783V143.67H76.9819V135.783H77.9878Z" fill="white"/>
<path d="M85.7737 135.783L83.3805 143.394C83.3458 143.463 83.3112 143.532 83.2245 143.584C83.1551 143.636 83.0684 143.67 82.9817 143.67H81.9585C81.8544 143.67 81.7678 143.636 81.6984 143.584C81.6291 143.532 81.5943 143.463 81.5597 143.394L79.1665 135.783H80.2071L82.0799 142.044C82.1146 142.2 82.1493 142.338 82.2013 142.477C82.236 142.615 82.2706 142.754 82.3053 142.909H82.6175C82.6522 142.754 82.6868 142.615 82.7215 142.477C82.7562 142.338 82.8082 142.183 82.8429 142.044L84.6985 135.8H85.7737V135.783Z" fill="white"/>
<path d="M88.4101 135.766C88.7916 135.766 89.1731 135.766 89.5546 135.766C89.9361 135.766 90.3177 135.766 90.6992 135.783C91.0807 135.783 91.4449 135.8 91.7917 135.835L91.757 136.63H88.5835C88.3407 136.63 88.1673 136.682 88.0632 136.803C87.9592 136.924 87.9072 137.115 87.9072 137.391V142.079C87.9072 142.356 87.9592 142.546 88.0632 142.667C88.1673 142.788 88.3407 142.857 88.5835 142.857H91.757L91.8091 143.636C91.4622 143.653 91.0981 143.67 90.7165 143.688C90.335 143.688 89.9535 143.705 89.5719 143.705C89.1904 143.705 88.809 143.705 88.4274 143.705C87.9592 143.705 87.595 143.584 87.3175 143.324C87.0401 143.065 86.9014 142.736 86.9014 142.321V137.149C86.9014 136.717 87.0574 136.388 87.3175 136.129C87.5777 135.904 87.9592 135.766 88.4101 135.766ZM87.1095 139.104H91.3235V139.917H87.1095V139.104Z" fill="white"/>
<path d="M116.191 135.644C116.521 135.644 116.815 135.644 117.058 135.662C117.301 135.679 117.526 135.714 117.717 135.731C117.925 135.766 118.133 135.817 118.341 135.869L118.237 136.648C118.012 136.63 117.804 136.596 117.596 136.596C117.405 136.578 117.197 136.578 116.971 136.561C116.746 136.561 116.486 136.544 116.174 136.544C115.671 136.544 115.255 136.648 114.96 136.838C114.665 137.046 114.44 137.374 114.318 137.841C114.197 138.308 114.127 138.931 114.127 139.744C114.127 140.54 114.197 141.18 114.318 141.647C114.44 142.114 114.665 142.442 114.96 142.65C115.255 142.84 115.653 142.944 116.174 142.944C116.659 142.944 117.075 142.927 117.405 142.909C117.734 142.892 118.064 142.857 118.376 142.805L118.48 143.549C118.151 143.636 117.821 143.705 117.457 143.757C117.11 143.809 116.677 143.809 116.156 143.809C115.411 143.809 114.804 143.688 114.336 143.411C113.885 143.151 113.555 142.719 113.347 142.131C113.139 141.543 113.052 140.73 113.052 139.727C113.052 138.723 113.156 137.91 113.347 137.322C113.555 136.734 113.885 136.302 114.336 136.042C114.821 135.783 115.428 135.644 116.191 135.644Z" fill="white"/>
<path d="M125.59 135.783V140.661C125.59 141.422 125.503 142.044 125.33 142.511C125.139 142.978 124.845 143.307 124.428 143.532C124.012 143.739 123.457 143.843 122.763 143.843C122.052 143.843 121.48 143.739 121.047 143.532C120.613 143.324 120.318 142.978 120.128 142.511C119.937 142.044 119.85 141.439 119.85 140.661V135.783H120.856V140.661C120.856 141.231 120.908 141.681 121.029 142.01C121.151 142.338 121.359 142.581 121.619 142.719C121.896 142.857 122.261 142.926 122.729 142.926C123.18 142.926 123.544 142.857 123.821 142.719C124.099 142.581 124.29 142.338 124.411 142.01C124.532 141.681 124.602 141.231 124.602 140.661V135.783H125.59Z" fill="white"/>
<path d="M128.503 135.783V142.079C128.503 142.338 128.555 142.529 128.694 142.65C128.815 142.771 129.023 142.823 129.266 142.823H132.11L132.162 143.601C131.677 143.636 131.156 143.653 130.653 143.67C130.133 143.67 129.63 143.688 129.11 143.688C128.52 143.688 128.122 143.549 127.879 143.255C127.636 142.978 127.515 142.615 127.515 142.183V135.783H128.503Z" fill="white"/>
<path d="M137.608 135.783V136.682H131.504V135.783H137.608ZM135.059 135.783V143.67H134.053V135.783H135.059Z" fill="white"/>
<path d="M144.562 135.783V140.661C144.562 141.422 144.475 142.044 144.284 142.511C144.093 142.978 143.799 143.307 143.382 143.532C142.966 143.739 142.411 143.843 141.718 143.843C141.007 143.843 140.434 143.739 140.001 143.532C139.567 143.324 139.272 142.978 139.082 142.511C138.891 142.044 138.804 141.439 138.804 140.661V135.783H139.81V140.661C139.81 141.231 139.862 141.681 139.983 142.01C140.105 142.338 140.313 142.581 140.573 142.719C140.851 142.857 141.215 142.926 141.683 142.926C142.134 142.926 142.498 142.857 142.775 142.719C143.036 142.581 143.244 142.338 143.365 142.01C143.486 141.681 143.556 141.231 143.556 140.661V135.783H144.562Z" fill="white"/>
<path d="M149.244 135.679C149.851 135.679 150.354 135.748 150.718 135.887C151.082 136.025 151.359 136.25 151.533 136.578C151.706 136.907 151.793 137.374 151.793 137.962C151.793 138.395 151.741 138.741 151.637 139.035C151.533 139.329 151.377 139.554 151.169 139.709C150.961 139.865 150.683 139.969 150.336 140.003V140.055C150.458 140.09 150.597 140.159 150.718 140.245C150.839 140.349 150.961 140.47 151.065 140.626C151.169 140.782 151.256 140.972 151.308 141.197L152.071 143.688H150.995L150.302 141.214C150.198 140.92 150.076 140.712 149.903 140.574C149.747 140.453 149.521 140.384 149.261 140.384C148.793 140.384 148.394 140.384 148.047 140.384C147.701 140.384 147.423 140.367 147.18 140.367C146.955 140.367 146.764 140.367 146.643 140.367L146.677 139.536H149.227C149.608 139.536 149.92 139.484 150.146 139.398C150.371 139.311 150.527 139.173 150.631 138.948C150.735 138.723 150.787 138.429 150.787 138.031C150.787 137.651 150.735 137.34 150.631 137.132C150.527 136.924 150.371 136.769 150.146 136.7C149.92 136.613 149.608 136.578 149.227 136.578C148.602 136.578 148.065 136.578 147.614 136.578C147.163 136.578 146.851 136.596 146.695 136.596L146.539 135.8C146.833 135.766 147.111 135.748 147.354 135.731C147.614 135.714 147.891 135.696 148.186 135.696C148.463 135.679 148.81 135.679 149.244 135.679ZM147.51 135.783V143.67H146.504V135.783H147.51Z" fill="white"/>
<path d="M155.036 135.765C155.418 135.765 155.799 135.765 156.181 135.765C156.562 135.765 156.944 135.766 157.325 135.783C157.707 135.783 158.071 135.8 158.418 135.835L158.366 136.63H155.192C154.95 136.63 154.776 136.682 154.672 136.803C154.568 136.924 154.516 137.115 154.516 137.391V142.079C154.516 142.356 154.568 142.546 154.672 142.667C154.776 142.788 154.95 142.857 155.192 142.857H158.366L158.418 143.636C158.071 143.653 157.707 143.67 157.325 143.688C156.944 143.688 156.562 143.705 156.181 143.705C155.799 143.705 155.418 143.705 155.036 143.705C154.568 143.705 154.204 143.584 153.926 143.324C153.666 143.065 153.51 142.736 153.51 142.321V137.149C153.51 136.717 153.666 136.388 153.926 136.129C154.204 135.904 154.568 135.765 155.036 135.765ZM153.718 139.104H157.932V139.917H153.718V139.104Z" fill="white"/>
<path d="M180.217 135.765C180.598 135.765 180.979 135.765 181.361 135.765C181.743 135.765 182.124 135.766 182.506 135.783C182.887 135.783 183.251 135.8 183.598 135.835L183.546 136.63H180.373C180.13 136.63 179.956 136.682 179.852 136.803C179.748 136.924 179.696 137.115 179.696 137.391V142.079C179.696 142.356 179.748 142.546 179.852 142.667C179.956 142.788 180.13 142.857 180.373 142.857H183.546L183.598 143.636C183.251 143.653 182.887 143.67 182.506 143.688C182.124 143.688 181.743 143.705 181.361 143.705C180.979 143.705 180.598 143.705 180.217 143.705C179.748 143.705 179.384 143.584 179.107 143.324C178.846 143.065 178.69 142.736 178.69 142.321V137.149C178.69 136.717 178.846 136.388 179.107 136.129C179.384 135.904 179.766 135.765 180.217 135.765ZM178.916 139.104H183.13V139.917H178.916V139.104Z" fill="white"/>
<path d="M190.968 135.783L188.575 143.394C188.54 143.463 188.505 143.532 188.419 143.584C188.349 143.636 188.263 143.67 188.176 143.67H187.153C187.049 143.67 186.962 143.636 186.893 143.584C186.823 143.532 186.789 143.463 186.754 143.394L184.361 135.783H185.401L187.274 142.044C187.309 142.2 187.344 142.338 187.396 142.477C187.43 142.615 187.465 142.754 187.5 142.909H187.812C187.846 142.754 187.881 142.615 187.916 142.477C187.951 142.338 188.003 142.183 188.037 142.044L189.893 135.8H190.968V135.783Z" fill="white"/>
<path d="M193.604 135.765C193.986 135.765 194.367 135.765 194.749 135.765C195.13 135.765 195.512 135.766 195.893 135.783C196.275 135.783 196.639 135.8 196.986 135.835L196.934 136.63H193.76C193.518 136.63 193.344 136.682 193.24 136.803C193.136 136.924 193.084 137.115 193.084 137.391V142.079C193.084 142.356 193.136 142.546 193.24 142.667C193.344 142.788 193.518 142.857 193.76 142.857H196.934L196.986 143.636C196.639 143.653 196.275 143.67 195.893 143.688C195.512 143.688 195.13 143.705 194.749 143.705C194.367 143.705 193.986 143.705 193.604 143.705C193.136 143.705 192.772 143.584 192.494 143.324C192.217 143.065 192.078 142.736 192.078 142.321V137.149C192.078 136.717 192.234 136.388 192.494 136.129C192.772 135.904 193.153 135.765 193.604 135.765ZM192.304 139.104H196.518V139.917H192.304V139.104Z" fill="white"/>
<path d="M204.651 135.783V143.272C204.651 143.532 204.512 143.67 204.252 143.67H203.281C203.159 143.67 203.073 143.636 203.003 143.584C202.934 143.532 202.882 143.445 202.83 143.342L200.159 137.755C200.09 137.599 200.003 137.426 199.916 137.236C199.83 137.045 199.76 136.855 199.708 136.7H199.518C199.535 136.855 199.552 137.028 199.552 137.218C199.552 137.391 199.552 137.564 199.552 137.755V143.67H198.546V136.181C198.546 135.904 198.685 135.783 198.945 135.783H199.899C200.02 135.783 200.107 135.8 200.177 135.869C200.246 135.921 200.298 136.008 200.35 136.111L202.934 141.577C203.02 141.733 203.107 141.923 203.211 142.114C203.298 142.321 203.385 142.511 203.489 142.702H203.679C203.679 142.494 203.662 142.304 203.662 142.096C203.662 141.889 203.645 141.698 203.645 141.508V135.783H204.651Z" fill="white"/>
<path d="M212.021 135.783V136.682H205.917V135.783H212.021ZM209.454 135.783V143.67H208.448V135.783H209.454Z" fill="white"/>
<path d="M215.489 135.644C215.87 135.644 216.252 135.679 216.651 135.696C217.05 135.731 217.449 135.783 217.83 135.869L217.761 136.596C217.431 136.578 217.067 136.578 216.668 136.561C216.269 136.561 215.888 136.544 215.524 136.544C215.246 136.544 215.003 136.544 214.795 136.578C214.587 136.596 214.414 136.63 214.292 136.717C214.154 136.786 214.067 136.907 214.015 137.08C213.963 137.236 213.928 137.461 213.928 137.755C213.928 138.187 213.998 138.498 214.154 138.671C214.31 138.844 214.57 138.965 214.917 139.052L216.529 139.45C217.136 139.588 217.553 139.848 217.778 140.211C218.003 140.574 218.108 141.058 218.108 141.664C218.108 142.114 218.056 142.494 217.952 142.771C217.847 143.048 217.691 143.255 217.483 143.411C217.275 143.567 216.998 143.67 216.651 143.722C216.321 143.774 215.923 143.809 215.472 143.809C215.212 143.809 214.882 143.809 214.448 143.774C214.032 143.757 213.547 143.688 213.009 143.584L213.079 142.84C213.529 142.857 213.894 142.875 214.171 142.892C214.449 142.892 214.674 142.909 214.882 142.909C215.073 142.909 215.281 142.909 215.489 142.909C215.905 142.909 216.217 142.875 216.443 142.823C216.686 142.771 216.842 142.632 216.928 142.459C217.032 142.269 217.084 142.01 217.084 141.647C217.084 141.335 217.05 141.11 216.98 140.937C216.911 140.782 216.807 140.643 216.651 140.557C216.495 140.47 216.321 140.401 216.079 140.349L214.448 139.934C213.876 139.796 213.477 139.536 213.235 139.19C213.009 138.827 212.888 138.343 212.888 137.737C212.888 137.288 212.94 136.907 213.044 136.63C213.148 136.354 213.304 136.146 213.512 135.99C213.72 135.852 213.998 135.766 214.31 135.714C214.657 135.662 215.055 135.644 215.489 135.644Z" fill="white"/>
<path d="M103.844 139.727C103.844 140.436 103.289 141.007 102.578 141.007C101.867 141.024 101.243 140.401 101.243 139.692C101.243 138.983 101.867 138.395 102.595 138.412C103.324 138.447 103.844 139 103.844 139.727Z" fill="white"/>
<path d="M170.002 139.727C169.985 140.453 169.361 141.041 168.65 141.007C167.956 140.972 167.401 140.401 167.401 139.692C167.401 138.948 167.991 138.395 168.736 138.412C169.447 138.447 170.019 139.035 170.002 139.727Z" fill="white"/>
</svg>
